<svg xmlns="http://www.w3.org/2000/svg" viewBox="0 0 655.11 511.25"><defs><style>.cls-1{fill:#f4d03f;}.cls-2{fill:#85929e;}</style></defs><title>brokenclouds</title><g id="Layer_9" data-name="Layer 9"><circle class="cls-1" cx="474.11" cy="330.25" r="181"/><path class="cls-2" d="M554.5,531.11a74.55,74.55,0,0,0-14,.62l-15.45,15.45A62,62,0,1,1,547.49,667h-148q-3,0-6-.19a95,95,0,1,1,98-118.58l12.94-12.94c-8.51-22.11-36.12-76.23-102.51-76.23C318.5,459.06,287.5,528,287.5,570s35,111,108,111h159s71-8,71-75C625.5,606,624.5,539.21,554.5,531.11Z" transform="translate(-57.39 -169.75)"/><rect x="201.27" y="127.35" width="11.47" height="505.3" transform="translate(101.22 640.26) rotate(-145)"/></g></svg>