<svg xmlns="http://www.w3.org/2000/svg" viewBox="0 0 664.11 684.76"><defs><style>.cls-1{fill:#f4d03f;}.cls-2{fill:#7fb3d5;}.cls-3{fill:#2e4053;}.cls-4{fill:#85929e;}</style></defs><title>thunderstormwrain</title><g id="Layer_6" data-name="Layer 6"><polygon class="cls-1" points="392.56 515.74 443.61 515.74 397.84 568.56 426.01 568.56 318.61 684.75 385.51 591.45 330.94 591.45 392.56 515.74"/></g><g id="Layer_8" data-name="Layer 8"><path class="cls-2" d="M357.51,696.5s9.48,19.83,9.18,28.86-8.32,14.1-16.61,13.29-16.17-11.29-10.51-21.32S357.51,696.5,357.51,696.5Z" transform="translate(-57.39 -169.75)"/><path class="cls-2" d="M530.51,714.5s9.48,19.83,9.18,28.86-8.32,14.1-16.61,13.29-16.17-11.29-10.51-21.32S530.51,714.5,530.51,714.5Z" transform="translate(-57.39 -169.75)"/><path class="cls-2" d="M369.42,781.14s6.93,14.51,6.71,21.12S370,812.57,364,812s-11.83-8.26-7.69-15.6S369.42,781.14,369.42,781.14Z" transform="translate(-57.39 -169.75)"/></g><g id="Layer_4" data-name="Layer 4"><path class="cls-3" d="M650.5,461.11a74.55,74.55,0,0,0-14,.62l-15.45,15.45A62,62,0,1,1,643.49,597h-33.4a61.45,61.45,0,0,1,0,14H650.5s71-8,71-75C721.5,536,720.5,469.21,650.5,461.11ZM497.92,389.06c-58.92,0-91.69,34.4-105.85,69.4a119.54,119.54,0,0,0-5.85,18.6A96,96,0,0,1,400.49,476c1.2,0,2.39,0,3.58.07a93.69,93.69,0,0,1,7-17.72,95,95,0,0,1,176.4,19.88l12.94-12.94C591.92,443.18,564.31,389.06,497.92,389.06Z" transform="translate(-57.39 -169.75)"/></g><g id="Layer_9" data-name="Layer 9"><path class="cls-4" d="M624.69,598c-2.8-18-15.22-60.53-70.19-66.89a74.55,74.55,0,0,0-14,.62l-15.45,15.45a62,62,0,0,1,84,50.82,61.45,61.45,0,0,1,0,14,62,62,0,0,1-61.6,55h-148q-3,0-6-.19a95,95,0,0,1-8.27-188.75A96,96,0,0,1,399.49,477c1.2,0,2.39,0,3.58.07a95,95,0,0,1,88.42,71.16l12.94-12.94c-8.15-21.18-33.83-71.74-94.34-75.94q-4-.28-8.17-.29c-3.72,0-7.34.14-10.85.4C315.8,465.16,287.5,529.87,287.5,570c0,42,35,111,108,111h159s66.71-7.52,70.81-69c.12-1.94.19-3.94.19-6A65,65,0,0,0,624.69,598Z" transform="translate(-57.39 -169.75)"/><rect x="201.27" y="127.35" width="11.47" height="505.3" transform="translate(101.22 640.26) rotate(-145)"/></g></svg>