<svg xmlns="http://www.w3.org/2000/svg" viewBox="0 0 834 224.19"><defs><style>.cls-1{fill:#9e0d0d;}.cls-2{fill:#fff;}.cls-3{fill:red;}.cls-4{font-size:90px;font-family:OpenSans-Semibold, Open Sans;font-weight:600;}</style></defs><title>wmainlogo</title><g id="Layer_6" data-name="Layer 6"><path class="cls-1" d="M163.61,390.27V379.94s3.9-18,21.23-18,20.57,16.67,20.57,16.67v11.69S189,383.68,163.61,390.27Z" transform="translate(-88 -361.91)"/><path class="cls-2" d="M170.72,388.89v-6.81s2.57-11.9,14-11.9,13.56,11,13.56,11v7.71S187.46,384.54,170.72,388.89Z" transform="translate(-88 -361.91)"/><path class="cls-1" d="M149.8,562.46s37.13,5.78,69.41,0C219.21,562.46,190.29,615.64,149.8,562.46Z" transform="translate(-88 -361.91)"/><path class="cls-3" d="M88,554.22S124.44,539.45,117.54,440c0,0,5.42-51.2,67-53.17s67,56.13,67,56.13S239.65,514.83,282,554.22C282,554.22,204.2,578.84,88,554.22Z" transform="translate(-88 -361.91)"/><polygon class="cls-2" points="96.14 84.48 88.88 84.48 74.38 142.73 58.85 84.48 43.08 84.48 65.38 165.23 81.88 165.23 96.51 104.76 96.51 104.75 96.88 103.23 96.88 84.48 96.14 84.48"/><polygon class="cls-2" points="96.14 84.48 96.14 103.23 96.51 104.75 96.51 104.76 111.14 165.23 127.64 165.23 149.94 84.48 134.17 84.48 118.64 142.73 104.14 84.48 96.88 84.48 96.14 84.48"/></g><g id="Layer_3" data-name="Layer 3"><text class="cls-4" transform="translate(199 157.49)">WEATHERLERT</text></g></svg>