<svg xmlns="http://www.w3.org/2000/svg" viewBox="0 0 575.23 505.3"><defs><style>.cls-1{fill:#7fb3d5;}.cls-2{fill:#2e4053;}.cls-3{fill:#85929e;}</style></defs><title>drizzle</title><g id="Layer_8" data-name="Layer 8"><path class="cls-1" d="M363.51,597.5s9.48,19.83,9.18,28.86-8.32,14.1-16.61,13.29-16.17-11.29-10.51-21.32S363.51,597.5,363.51,597.5Z" transform="translate(-150.27 -247.35)"/><path class="cls-1" d="M519.42,615.14s6.93,14.51,6.71,21.12S520,646.57,514,646s-11.83-8.26-7.69-15.6S519.42,615.14,519.42,615.14Z" transform="translate(-150.27 -247.35)"/><path class="cls-1" d="M375.42,682.14s6.93,14.51,6.71,21.12S376,713.57,370,713s-11.83-8.26-7.69-15.6S375.42,682.14,375.42,682.14Z" transform="translate(-150.27 -247.35)"/><path class="cls-1" d="M558.51,670.5s9.48,19.83,9.18,28.86-8.32,14.1-16.61,13.29-16.17-11.29-10.51-21.32S558.51,670.5,558.51,670.5Z" transform="translate(-150.27 -247.35)"/><path class="cls-1" d="M437.51,628.5s9.48,19.83,9.18,28.86-8.32,14.1-16.61,13.29-16.17-11.29-10.51-21.32S437.51,628.5,437.51,628.5Z" transform="translate(-150.27 -247.35)"/><path class="cls-1" d="M474.56,701.58s4.93,10.32,4.77,15-4.33,7.34-8.64,6.92a7.51,7.51,0,0,1-5.47-11.09C468.16,707.21,474.56,701.58,474.56,701.58Z" transform="translate(-150.27 -247.35)"/></g><g id="Layer_4" data-name="Layer 4"><path class="cls-2" d="M654.5,348.11a74.55,74.55,0,0,0-14,.62l-15.45,15.45A62,62,0,1,1,647.49,484h-33.4a61.45,61.45,0,0,1,0,14H654.5s71-8,71-75C725.5,423,724.5,356.21,654.5,348.11ZM501.92,276.06c-58.92,0-91.69,34.4-105.85,69.4a119.54,119.54,0,0,0-5.85,18.6A96,96,0,0,1,404.49,363c1.2,0,2.39,0,3.58.07a93.69,93.69,0,0,1,7-17.72,95,95,0,0,1,176.4,19.88l12.94-12.94C595.92,330.18,568.31,276.06,501.92,276.06Z" transform="translate(-150.27 -247.35)"/></g><g id="Layer_9" data-name="Layer 9"><path class="cls-3" d="M623.69,489c-2.8-18-15.22-60.53-70.19-66.89a74.55,74.55,0,0,0-14,.62l-15.45,15.45a62,62,0,0,1,84,50.82,61.45,61.45,0,0,1,0,14,62,62,0,0,1-61.6,55h-148q-3,0-6-.19a95,95,0,0,1-8.27-188.75A96,96,0,0,1,398.49,368c1.2,0,2.39,0,3.58.07a95,95,0,0,1,88.42,71.16l12.94-12.94c-8.15-21.18-33.83-71.74-94.34-75.94q-4-.28-8.17-.29c-3.72,0-7.34.14-10.85.4C314.8,356.16,286.5,420.87,286.5,461c0,42,35,111,108,111h159s66.71-7.52,70.81-69c.12-1.94.19-3.94.19-6A65,65,0,0,0,623.69,489Z" transform="translate(-150.27 -247.35)"/><rect x="150.27" y="247.35" width="11.47" height="505.3" transform="translate(161.73 752.65) rotate(180)"/></g></svg>