<svg xmlns="http://www.w3.org/2000/svg" viewBox="0 0 576.23 505.3"><defs><style>.cls-1{fill:#f4d03f;}.cls-2{fill:#7fb3d5;}.cls-3{fill:#2e4053;}.cls-4{fill:#85929e;}</style></defs><title>lightrain</title><g id="Layer_10" data-name="Layer 10"><circle class="cls-1" cx="381.23" cy="183.65" r="181"/></g><g id="Layer_8" data-name="Layer 8"><path class="cls-2" d="M367.51,633.5s9.48,19.83,9.18,28.86-8.32,14.1-16.61,13.29-16.17-11.29-10.51-21.32S367.51,633.5,367.51,633.5Z" transform="translate(-150.27 -247.35)"/><path class="cls-2" d="M528.42,657.14s6.93,14.51,6.71,21.12S529,688.57,523,688s-11.83-8.26-7.69-15.6S528.42,657.14,528.42,657.14Z" transform="translate(-150.27 -247.35)"/><path class="cls-2" d="M379.42,718.14s6.93,14.51,6.71,21.12S380,749.57,374,749s-11.83-8.26-7.69-15.6S379.42,718.14,379.42,718.14Z" transform="translate(-150.27 -247.35)"/><path class="cls-2" d="M576.51,704.5s9.48,19.83,9.18,28.86-8.32,14.1-16.61,13.29-16.17-11.29-10.51-21.32S576.51,704.5,576.51,704.5Z" transform="translate(-150.27 -247.35)"/><path class="cls-2" d="M447.51,669.5s9.48,19.83,9.18,28.86-8.32,14.1-16.61,13.29-16.17-11.29-10.51-21.32S447.51,669.5,447.51,669.5Z" transform="translate(-150.27 -247.35)"/><path class="cls-2" d="M502.56,725.58s4.93,10.32,4.77,15-4.33,7.34-8.64,6.92a7.51,7.51,0,0,1-5.47-11.09C496.16,731.21,502.56,725.58,502.56,725.58Z" transform="translate(-150.27 -247.35)"/></g><g id="Layer_4" data-name="Layer 4"><path class="cls-3" d="M655.5,355.11a74.55,74.55,0,0,0-14,.62l-15.45,15.45A62,62,0,1,1,648.49,491h-33.4a61.45,61.45,0,0,1,0,14H655.5s71-8,71-75C726.5,430,725.5,363.21,655.5,355.11ZM502.92,283.06c-58.92,0-91.69,34.4-105.85,69.4a119.54,119.54,0,0,0-5.85,18.6A96,96,0,0,1,405.49,370c1.2,0,2.39,0,3.58.07a93.69,93.69,0,0,1,7-17.72,95,95,0,0,1,176.4,19.88l12.94-12.94C596.92,337.18,569.31,283.06,502.92,283.06Z" transform="translate(-150.27 -247.35)"/></g><g id="Layer_9" data-name="Layer 9"><path class="cls-4" d="M624.69,496c-2.8-18-15.22-60.53-70.19-66.89a74.55,74.55,0,0,0-14,.62l-15.45,15.45a62,62,0,0,1,84,50.82,61.45,61.45,0,0,1,0,14,62,62,0,0,1-61.6,55h-148q-3,0-6-.19a95,95,0,0,1-8.27-188.75A96,96,0,0,1,399.49,375c1.2,0,2.39,0,3.58.07a95,95,0,0,1,88.42,71.16l12.94-12.94c-8.15-21.18-33.83-71.74-94.34-75.94q-4-.28-8.17-.29c-3.72,0-7.34.14-10.85.4C315.8,363.16,287.5,427.87,287.5,468c0,42,35,111,108,111h159s66.71-7.52,70.81-69c.12-1.94.19-3.94.19-6A65,65,0,0,0,624.69,496Z" transform="translate(-150.27 -247.35)"/><rect x="150.27" y="247.35" width="11.47" height="505.3" transform="translate(161.73 752.65) rotate(180)"/></g></svg>