<svg xmlns="http://www.w3.org/2000/svg" viewBox="0 0 576.23 505.3"><defs><style>.cls-1{fill:#f4d03f;}.cls-2{fill:#2e4053;}.cls-3{fill:#85929e;}</style></defs><title>thunderstorm</title><g id="Layer_6" data-name="Layer 6"><polygon class="cls-1" points="299.68 321.14 350.73 321.14 304.96 373.96 333.13 373.96 225.73 490.16 292.63 396.85 238.06 396.85 299.68 321.14"/></g><g id="Layer_4" data-name="Layer 4"><path class="cls-2" d="M655.5,335.11a74.55,74.55,0,0,0-14,.62l-15.45,15.45A62,62,0,1,1,648.49,471h-33.4a61.45,61.45,0,0,1,0,14H655.5s71-8,71-75C726.5,410,725.5,343.21,655.5,335.11ZM502.92,263.06c-58.92,0-91.69,34.4-105.85,69.4a119.54,119.54,0,0,0-5.85,18.6A96,96,0,0,1,405.49,350c1.2,0,2.39,0,3.58.07a93.69,93.69,0,0,1,7-17.72,95,95,0,0,1,176.4,19.88l12.94-12.94C596.92,317.18,569.31,263.06,502.92,263.06Z" transform="translate(-150.27 -247.35)"/></g><g id="Layer_9" data-name="Layer 9"><path class="cls-3" d="M624.69,476c-2.8-18-15.22-60.53-70.19-66.89a74.55,74.55,0,0,0-14,.62l-15.45,15.45a62,62,0,0,1,84,50.82,61.45,61.45,0,0,1,0,14,62,62,0,0,1-61.6,55h-148q-3,0-6-.19a95,95,0,0,1-8.27-188.75A96,96,0,0,1,399.49,355c1.2,0,2.39,0,3.58.07a95,95,0,0,1,88.42,71.16l12.94-12.94c-8.15-21.18-33.83-71.74-94.34-75.94q-4-.28-8.17-.29c-3.72,0-7.34.14-10.85.4C315.8,343.16,287.5,407.87,287.5,448c0,42,35,111,108,111h159s66.71-7.52,70.81-69c.12-1.94.19-3.94.19-6A65,65,0,0,0,624.69,476Z" transform="translate(-150.27 -247.35)"/><rect x="150.27" y="247.35" width="11.47" height="505.3" transform="translate(161.73 752.65) rotate(180)"/></g></svg>