<svg xmlns="http://www.w3.org/2000/svg" viewBox="0 0 439 476.45"><defs><style>.cls-1{fill:#f4d03f;}.cls-2{fill:#2e4053;}.cls-3{fill:#85929e;}</style></defs><title>thunderstorm</title><g id="Layer_6" data-name="Layer 6"><polygon class="cls-1" points="163.44 307.43 214.5 307.43 168.72 360.25 196.89 360.25 89.5 476.45 156.4 383.14 101.82 383.14 163.44 307.43"/></g><g id="Layer_4" data-name="Layer 4"><path class="cls-2" d="M654.5,348.11a74.55,74.55,0,0,0-14,.62l-15.45,15.45A62,62,0,1,1,647.49,484h-33.4a61.45,61.45,0,0,1,0,14H654.5s71-8,71-75C725.5,423,724.5,356.21,654.5,348.11ZM501.92,276.06c-58.92,0-91.69,34.4-105.85,69.4a119.54,119.54,0,0,0-5.85,18.6A96,96,0,0,1,404.49,363c1.2,0,2.39,0,3.58.07a93.69,93.69,0,0,1,7-17.72,95,95,0,0,1,176.4,19.88l12.94-12.94C595.92,330.18,568.31,276.06,501.92,276.06Z" transform="translate(-286.5 -276.06)"/></g><g id="Layer_9" data-name="Layer 9"><path class="cls-3" d="M623.69,489c-2.8-18-15.22-60.53-70.19-66.89a74.55,74.55,0,0,0-14,.62l-15.45,15.45a62,62,0,0,1,84,50.82,61.45,61.45,0,0,1,0,14,62,62,0,0,1-61.6,55h-148q-3,0-6-.19a95,95,0,0,1-8.27-188.75A96,96,0,0,1,398.49,368c1.2,0,2.39,0,3.58.07a95,95,0,0,1,88.42,71.16l12.94-12.94c-8.15-21.18-33.83-71.74-94.34-75.94q-4-.28-8.17-.29c-3.72,0-7.34.14-10.85.4C314.8,356.16,286.5,420.87,286.5,461c0,42,35,111,108,111h159s66.71-7.52,70.81-69c.12-1.94.19-3.94.19-6A65,65,0,0,0,623.69,489Z" transform="translate(-286.5 -276.06)"/></g></svg>